# xmcd
#
# Track frame offsets:
#	150
#	5840
#	32446
#	51826
#	59370
#	80814
#	100516
#	117467
#	144224
#	165730
#	191361
#	213452
#	232849
#
# Disc length: 3461 seconds
#
# Revision: 1
# Processed by: cddbd v1.5.1PL0 Copyright (c) Steve Scherf et al.
# Submitted via: CDex 1.50Beta5
#
DISCID=a70d830d
DTITLE=waterclock - Brilliant Ripples
DYEAR=1900
DGENRE=Pop
TTITLE0=Introduction
TTITLE1=道のむこうに
TTITLE2=Fate
TTITLE3=waterclock/サラダの唄
TTITLE4=天使の夢
TTITLE5=waterclock/Star-Chidren
TTITLE6=With You
TTITLE7=Fragments/full version
TTITLE8=きみらしく
TTITLE9=ひかり
TTITLE10=ひたむきな想い
TTITLE11=Fate/off-vorcal version
TTITLE12=Fragments/off-vorcal version
EXTD=
EXTT0=
EXTT1=
EXTT2=
EXTT3=
EXTT4=
EXTT5=
EXTT6=
EXTT7=
EXTT8=
EXTT9=
EXTT10=
EXTT11=
EXTT12=
PLAYORDER=
